<svg data-name="Layer 1" xmlns="http://www.w3.org/2000/svg" viewBox="0 0 400 400">
  <path d="M88.82 123.2a3.88 3.88 0 011.27-.07H159.8q15.6 0 31.22-.1a14.22 14.22 0 013 .24 6.44 6.44 0 013.32 1.81 9.11 9.11 0 01.9 1.07 16 16 0 01.91 1.4C204 136 209 144.19 214 152.45q7.86 13 15.68 26.09c.39.66.73 1.35 1.08 2a1.88 1.88 0 01.09.53 12.44 12.44 0 01-2.05.28H204.38a2.79 2.79 0 01-2.24-1.28q-.28-.44-.54-.87-7.77-13-15.52-26c-.22-.37-.44-.74-.67-1.1a3.87 3.87 0 00-.48-.59 1.66 1.66 0 00-1.12-.56c-.34 0-.68-.05-1-.05l-42.22.05h-1.79c-.23 0-.33.24-.21.47s.12.23.19.34l.52.88 14.13 23.59c1.2 2 2.39 4 3.59 6.05a2.69 2.69 0 01.43 1 2.62 2.62 0 01-.35 1.72c-1.49 2.48-2.95 5-4.44 7.47q-5 8.35-10 16.68a7.54 7.54 0 01-.71 1.06c-.55.62-.65.78-1.17-.08q-4.65-7.78-9.33-15.58l-37.91-63.07-4.34-7.24c-.13-.22-.27-.44-.38-.67a1.14 1.14 0 010-.37z"/>
  <path d="M262.24 151a5 5 0 00-1.44-.08H224.98a6.05 6.05 0 01-1.13-.18 2.25 2.25 0 01-1.41-1l-.47-.76-14.35-23.75a4.37 4.37 0 01-.67-1.37 2.36 2.36 0 010-.38 1.86 1.86 0 01.37-.1h103a5.17 5.17 0 011.52.09 1.6 1.6 0 010 .38 5.68 5.68 0 01-.82 1.72q-6.92 11.43-13.79 22.86-15.33 25.57-30.65 51.26l-6.4 10.62c-.27.44-.52.89-.78 1.32-.13.22-.27.44-.41.66a2.39 2.39 0 01-1.92 1.09H189.27a.25.25 0 01-.18-.29 3.9 3.9 0 01.2-.47c.68-1.23 1.34-2.48 2.06-3.68 2.78-4.7 5.59-9.38 8.38-14.06.57-1 1.11-1.92 1.67-2.88.17-.29.34-.59.53-.87a3.38 3.38 0 012.47-1.43 13.1 13.1 0 011.4-.05l27.25.11h3.84c.43 0 .85 0 1.27-.07a2.37 2.37 0 001.64-.92 10.83 10.83 0 00.72-1.05l2.94-4.94q8.73-14.53 17.45-29.06c.46-.76.89-1.55 1.32-2.33a.82.82 0 00.01-.39z"/>
  <path d="M200.53 254.31c.25-.39.49-.75.7-1.11l11.72-19.52q2.93-4.87 5.87-9.75l.4-.66a2.74 2.74 0 012.53-1.43h5.12l18.17-.06c2.17 0 4.35.07 6.52-.05a2 2 0 011 .16.5.5 0 01.26.53 2.11 2.11 0 01-.17.48c-.2.37-.42.74-.64 1.1q-11.5 19.13-23 38.24-13.29 22.16-26.53 44.34c-.48.81-1 1.6-1.48 2.39a2.73 2.73 0 01-.41.49.22.22 0 01-.21 0 6 6 0 01-.52-.72c-2.2-3.6-4.41-7.2-6.59-10.81Q172.19 263 151.41 228c-1.26-2.13-2.57-4.23-3.86-6.34-.17-.29-.36-.58-.52-.88a2.08 2.08 0 010-2 11.13 11.13 0 01.57-1q5.31-8.82 10.61-17.65 10.62-17.72 21.21-35.45a18.21 18.21 0 011.59-2.31.29.29 0 01.44 0c.17.24.34.49.5.74 1.47 2.19 2.82 4.47 4.18 6.74l8 13.26a5.32 5.32 0 01.79 1.73 2.58 2.58 0 010 1.14 4.2 4.2 0 01-.43 1.2c-.2.38-.42.74-.64 1.11Q186 201 178.42 213.85c-.17.29-.35.58-.52.88a2.27 2.27 0 000 2.32c.19.33.39.66.59 1q10.49 17.49 21 35c.2.33.4.65.63 1a2 2 0 00.41.26z"/>
</svg>
