<svg xmlns="http://www.w3.org/2000/svg" width="64" height="64" viewBox="0 0 48 48">
  <g fill-rule="evenodd">
    <path d="M22.902344 3.285156c.679687-.378906 1.515625-.378906 2.195312 0 3.351563 1.882813 13.449219 7.550782 16.804688 9.433594C42.582031 13.101562 43 13.804688 43 14.566406v18.867188c0 .761718-.417969 1.464844-1.097656 1.847656-3.355469 1.882812-13.449219 7.550781-16.804688 9.433594-.679687.378906-1.515625.378906-2.195312 0-3.355469-1.882813-13.449219-7.550782-16.804688-9.433594C5.417969 34.898438 5 34.195312 5 33.433594V14.566406c0-.761718.417969-1.464844 1.097656-1.847656 3.351563-1.882812 13.453125-7.550781 16.804688-9.433594zm0 0"/>
    <path d="M5.304688 34.402344C5.039062 34.046875 5 33.710938 5 33.253906V14.496094c0-.757813.417969-1.457032 1.09375-1.835938C9.4375 10.789062 19.5 5.152344 22.84375 3.28125c.675781-.378906 1.59375-.371094 2.269531.007812 3.34375 1.871094 13.371094 7.457032 16.714844 9.328126.269531.152343.476563.335937.660156.578124zm0 0"/>
    <path d="M24 10c7.726562 0 14 6.273438 14 14s-6.273438 14-14 14-14-6.273438-14-14 6.273438-14 14-14zm0 7c3.863281 0 7 3.136719 7 7s-3.136719 7-7 7-7-3.136719-7-7 3.136719-7 7-7zm0 0" fill="#fff"/>
    <path d="M42.484375 13.203125c.515625.484375.507813 1.210937.507813 1.785156 0 3.796875-.03125 14.589844.007812 18.382813.003906.398437-.128906.816406-.324219 1.128906L23.59375 24zm0 0"/>
    <path d="M31 21h2v6h-2zm7 0h2v6h-2zm0 0" fill="#fff"/>
    <path d="M29 23h6v2h-6zm7 0h6v2h-6zm0 0" fill="#fff"/>
  </g>
</svg>
