<svg xmlns="http://www.w3.org/2000/svg" viewBox="0 0 431.17 431.17">
  <path d="M68.831 99.602h255.814c7.878 0 14.265-6.387 14.265-14.265 0-7.878-6.387-14.265-14.265-14.265H68.831c-7.878 0-14.265 6.387-14.265 14.265 0 7.878 6.387 14.265 14.265 14.265zM68.831 160.465h255.814c7.878 0 14.265-6.387 14.265-14.265 0-7.878-6.387-14.265-14.265-14.265H68.831c-7.878 0-14.265 6.387-14.265 14.265 0 7.878 6.387 14.265 14.265 14.265zM204.549 192.799H68.831c-7.878 0-14.265 6.387-14.265 14.265 0 7.878 6.387 14.265 14.265 14.265h135.718c7.878 0 14.265-6.387 14.265-14.265 0-7.878-6.387-14.265-14.265-14.265z"/>
  <path d="M430.373 409.679l-37.295-73.843 14.431-5.759c3.79-1.513 6.97-5.888 7.24-9.96l1.229-18.516c.206-3.102 1.778-7.941 3.434-10.569l9.886-15.702c2.175-3.452 2.175-8.861.001-12.314l-9.887-15.702c-1.654-2.628-3.227-7.469-3.433-10.569l-1.228-18.516c-.232-3.486-2.6-7.188-5.652-9.132V37.438c0-15.732-12.798-28.53-28.529-28.53H28.529C12.798 8.908 0 21.706 0 37.438v244.381c0 15.732 12.798 28.529 28.529 28.529h224.396l.648 9.77c.271 4.072 3.45 8.446 7.24 9.959l13.549 5.407-37.474 74.195c-1.153 2.284-.844 3.66-.381 4.412.293.477 1.011 1.275 2.523 1.275.756 0 1.627-.204 2.589-.606l30.697-12.852c.755-.316 1.653-.483 2.597-.483 2.255 0 4.553.933 5.854 2.374l14.746 16.349c1.229 1.363 2.751 2.114 4.283 2.114 2.022 0 3.836-1.307 4.85-3.494l28.89-62.32c.063-.001.125-.001.188-.002l28.891 62.322c1.014 2.188 2.827 3.494 4.851 3.494 1.531 0 3.053-.751 4.282-2.115l14.745-16.347c1.302-1.442 3.6-2.375 5.854-2.375.943 0 1.842.167 2.597.483l30.697 12.852c.962.402 1.833.606 2.589.606 1.513 0 2.23-.799 2.523-1.275.464-.752.773-2.128-.38-4.412zM28.529 37.438h352.039l.002 156.56-11.152-13.417c-2.036-2.449-5.764-4.094-9.275-4.094-.855 0-1.673.098-2.433.291l-17.998 4.581c-2.867.729-8.236.729-11.104 0l-17.996-4.581c-.76-.193-1.578-.291-2.433-.291-3.512 0-7.239 1.645-9.275 4.094l-11.866 14.277c-1.984 2.389-6.099 5.379-8.983 6.53l-17.24 6.882c-3.791 1.513-6.971 5.887-7.241 9.959l-1.229 18.516c-.205 3.102-1.777 7.941-3.433 10.569l-9.886 15.702c-2.175 3.452-2.175 8.862 0 12.314l4.085 6.488H28.529V37.438zM334.16 329.825c-33.497 0-60.652-27.154-60.652-60.652 0-33.498 27.155-60.652 60.652-60.652 33.498 0 60.654 27.154 60.654 60.652.001 33.498-27.156 60.652-60.654 60.652z"/>
</svg>
