<svg xmlns="http://www.w3.org/2000/svg" width="64" height="64" viewBox="0 0 48 48">
  <g fill-rule="evenodd">
    <path d="M8 16v12.644531C6.65625 28.898438 5.949219 29 4.878906 29 1.671875 28.996094 0 27.566406 0 24.816406c0-2.648437 1.769531-4.367187 4.515625-4.367187.425781 0 .75.03125 1.144531.132812V16zm-2.339844 6.671875c-.308594-.101563-.5625-.132813-.886718-.132813-1.328126 0-2.097657.808594-2.097657 2.226563 0 1.382813.734375 2.144531 2.082031 2.144531.289063 0 .523438-.015625.902344-.066406zm0 0"/>
    <path d="M12 20.046875v6.617187c0 2.074219-.15625 3.222657-.613281 4.082032-.425781.828125-.984375 1.351562-2.144531 1.925781l-2.4375-1.148437c1.160156-.539063 1.722656-1.015626 2.078124-1.742188.375-.742188.496094-1.753906.496094-4.015625v-5.722656H12zm0 0M9.378906 16H12v2.714844H9.378906zm0 0M13.734375 20.875c1.136719-.550781 2.222656-.792969 3.40625-.792969 1.324219 0 2.191406.363281 2.574219 1.070313.214844.398437.285156.914062.285156 2.023437v5.40625c-1.152344.171875-2.605469.292969-3.671875.292969-2.15625 0-3.125-.777344-3.125-2.503906 0-1.867188 1.285156-2.730469 4.441406-3.007813v-.582031c0-.484375-.234375-.660156-.882812-.660156-.949219 0-2.019531.277344-3.023438.8125zm4.027344 4.230469c-1.703125.171875-2.253907.449219-2.253907 1.140625 0 .519531.316407.761718 1.019532.761718.382812 0 .734375-.03125 1.234375-.117187zm0 0M21.417969 20.691406c1.519531-.417968 2.773437-.613281 4.042969-.613281 1.316406 0 2.269531.320313 2.835937.933594.53125.578125.703125 1.210937.703125 2.5625V28.875h-2.574219v-5.195312c0-1.035157-.335937-1.421876-1.25-1.421876-.351562 0-.671875.035157-1.1875.195313v6.425781h-2.570312zm0 0M30.175781 30.007812c.921875.484376 1.839844.707032 2.8125.707032 1.722657 0 2.453125-.472656 2.453125-2.175782v-.050781c-.507812.257813-1.023437.367188-1.703125.367188-2.300781 0-3.738281-1.546875-3.738281-4 0-3.042969 2.140625-4.761719 5.972656-4.761719 1.128906 0 2.167969.121094 3.429688.382812l-.898438 1.929688c-.699218-.136719-.058594-.019531-.585937-.070312v.277343l.035156 1.132813.015625 1.460937c.015625.363281.015625.730469.035156 1.09375v.730469c0 2.296875-.191406 3.132812-.75 4.019531C36.433594 32.355469 35.019531 33 33.007812 33c-1.027343 0-1.910156-.15625-2.832031-.523438zM35.390625 22.25h-.273437c-.511719-.015625-1.109376.121094-1.519532.382812-.625.367188-.953125 1.027344-.953125 1.964844 0 1.335938.652344 2.101563 1.808594 2.101563.359375 0 .648437-.066407.988281-.171875v-.921875c0-.316407-.015625-.664063-.015625-1.027344l-.019531-1.234375-.015625-.886719zm0 0M43.566406 20.046875C46.320312 20.046875 48 21.707031 48 24.394531c0 2.753907-1.753906 4.484375-4.542969 4.484375C40.699219 28.878906 39 27.21875 39 24.546875c.003906-2.773437 1.757812-4.5 4.566406-4.5zm-.058594 6.707031c1.058594 0 1.683594-.839844 1.683594-2.296875 0-1.4375-.609375-2.292969-1.664062-2.292969-1.09375 0-1.71875.839844-1.71875 2.292969 0 1.457031.628906 2.296875 1.699218 2.296875zm0 0"/>
  </g>
</svg>
