<svg id="Layer_1" data-name="Layer 1" xmlns="http://www.w3.org/2000/svg" viewBox="0 0 512 512"><defs><style>.cls-1{fill:#fe2c25;}.cls-2{fill:#2785fc;}.cls-3{fill:#01a04f;}.cls-4{fill:#ffba01;}</style></defs><path class="cls-1" d="M48.73,208.12Q71.38,195.48,94,182.81c26.38-14.75,52.79-29.44,79.11-44.29,14.37-8.11,28.88-9.54,43.35-.87,24.21,14.5,24.35,47.68.16,63.55-8.95,5.87-18.59,10.68-28,15.91-15.74,8.8-31.54,17.5-47.23,26.38a3.89,3.89,0,0,1-4.55,0c-17.8-10-35.7-19.9-53.45-30-10.55-6-21.51-8.07-33.32-4.79a5.07,5.07,0,0,1-1.35,0Z"/><path class="cls-2" d="M235.68,320.43c.62,19.32-15.8,35.28-34.11,37.42-11.76,1.37-21.49-3.12-31.21-8.59-22.18-12.51-44.45-24.86-66.67-37.29-20.52-11.48-41.13-22.8-61.49-34.53-19.13-11-24.8-32.62-14.06-51.79C35.23,213,53.63,204.46,67.61,207.9a72.49,72.49,0,0,1,17.33,6.53c32.81,18,65.45,36.31,98.13,54.54,11.54,6.44,23,13,34.56,19.44C228.22,294.33,236.46,308.13,235.68,320.43Z"/><path class="cls-3" d="M448.05,282.62c-7.74.67-14.83-2.22-21.58-5.72-14.11-7.32-28-15-42-22.55q-26.2-14.06-52.43-28c-16.83-9-34-17.41-50.31-27.35-11.09-6.78-15.76-18.27-15.13-31.36,1-20.05,16-33,34.54-35.64,11.66-1.67,22,2,32,7.43q22.26,12.15,44.6,24.14c16.29,8.74,32.64,17.37,48.95,26.06C436.77,195,447,200.32,457,205.89c6.52,3.6,13,7.3,19.21,11.44,7.36,4.92,10.93,12.54,12.37,20.95,2.06,12.09-.76,23.28-9.53,32C470.72,278.48,460.41,283.23,448.05,282.62Z"/><path class="cls-4" d="M460.32,282.2c-4.56,2.58-9.1,5.19-13.68,7.74Q390,321.54,333.29,353.13c-22.65,12.61-50.83,2-57.93-21.71a36.77,36.77,0,0,1,16.78-42.72c25.25-14.42,50.68-28.55,76.1-42.66a5.51,5.51,0,0,1,4.55.26c16.73,9.18,33.35,18.56,50,27.79S442.06,283.74,460.32,282.2Z"/></svg>