<?xml version="1.0" standalone="no"?>
<!DOCTYPE svg PUBLIC "-//W3C//DTD SVG 20010904//EN"
 "http://www.w3.org/TR/2001/REC-SVG-20010904/DTD/svg10.dtd">
<svg version="1.0" xmlns="http://www.w3.org/2000/svg"
 width="1024.000000pt" height="1024.000000pt" viewBox="0 0 1024.000000 1024.000000"
 preserveAspectRatio="xMidYMid meet">

<g transform="translate(0.000000,1024.000000) scale(0.100000,-0.100000)"
fill="#000000" stroke="none">
<path d="M4635 10029 c-33 -4 -105 -13 -159 -19 -55 -6 -103 -13 -106 -15 -4
-2 -51 -11 -106 -19 -131 -20 -489 -111 -684 -175 -237 -78 -261 -86 -345
-125 -43 -20 -83 -36 -90 -36 -13 0 -210 -99 -370 -188 -133 -73 -394 -235
-483 -300 -35 -26 -72 -51 -81 -57 -9 -5 -44 -31 -78 -57 -35 -27 -67 -48 -73
-48 -5 0 -10 -4 -10 -9 0 -5 -37 -37 -82 -72 -94 -71 -595 -569 -632 -627 -13
-20 -50 -67 -83 -103 -32 -36 -66 -79 -75 -95 -10 -16 -45 -67 -78 -114 -87
-121 -185 -272 -238 -365 -25 -44 -52 -87 -59 -96 -7 -8 -13 -21 -13 -27 0 -6
-10 -26 -22 -44 -22 -32 -105 -196 -182 -360 -20 -42 -36 -85 -36 -95 0 -11
-5 -24 -11 -30 -12 -12 -22 -38 -99 -263 -76 -224 -200 -723 -200 -808 0 -20
-5 -54 -10 -74 -16 -57 -39 -292 -52 -530 -8 -164 -8 -269 0 -425 12 -207 36
-464 48 -493 3 -8 9 -51 14 -95 10 -93 64 -342 115 -531 39 -143 130 -429 145
-456 6 -10 10 -23 10 -28 0 -6 12 -37 26 -68 14 -31 29 -66 33 -77 20 -51 147
-314 171 -355 5 -8 33 -55 61 -105 111 -191 214 -354 292 -462 45 -63 92 -128
105 -146 108 -151 737 -807 774 -807 8 0 22 -7 29 -16 38 -46 576 -424 603
-424 3 0 24 -13 48 -29 24 -16 93 -55 153 -86 61 -32 117 -64 126 -71 8 -8 19
-14 24 -14 5 0 65 -25 134 -56 177 -79 173 -78 306 -127 238 -89 685 -212 860
-237 61 -9 116 -18 280 -46 266 -44 1038 -44 1233 1 35 8 80 15 100 15 42 0
167 22 292 51 47 11 92 19 101 19 26 0 454 125 564 165 55 20 114 41 132 46
18 5 45 16 60 24 15 8 35 15 44 15 8 0 24 7 35 15 10 8 25 15 33 15 8 0 22 6
30 13 9 8 39 22 66 32 119 44 625 321 625 343 0 4 12 13 28 19 46 21 319 217
441 317 137 112 639 617 729 733 133 171 298 410 386 556 27 45 57 96 67 112
10 17 24 41 30 55 5 13 14 27 18 30 28 20 231 483 299 685 74 217 162 515 162
546 0 15 6 44 14 65 7 22 16 64 20 95 4 31 14 78 22 104 7 27 14 70 14 97 0
27 4 58 10 68 13 24 38 278 50 500 14 263 -17 838 -49 923 -6 16 -11 50 -11
76 0 26 -6 70 -14 97 -8 27 -18 74 -21 104 -4 30 -14 72 -21 94 -8 21 -14 49
-14 61 0 60 -189 645 -261 808 -22 51 -46 107 -52 125 -5 17 -14 32 -19 32 -4
0 -8 8 -9 18 0 9 -14 40 -30 67 -16 28 -32 57 -35 65 -15 38 -49 107 -65 130
-9 14 -33 54 -53 90 -45 79 -126 211 -143 231 -7 7 -42 59 -79 113 -36 55 -90
132 -120 172 -30 39 -54 75 -54 79 0 4 -28 37 -61 73 -34 37 -72 83 -84 102
-32 48 -456 466 -590 581 -154 133 -463 347 -711 495 -111 66 -378 204 -394
204 -7 0 -21 6 -29 14 -9 7 -45 24 -81 37 -36 12 -70 26 -75 30 -28 21 -488
172 -650 214 -182 47 -392 89 -585 117 -143 21 -194 23 -645 24 -269 1 -517
-2 -550 -7z m539 -2354 c177 -62 305 -203 335 -369 14 -74 14 -221 1 -300 -16
-97 -61 -179 -143 -260 -132 -132 -207 -154 -520 -155 l-157 -1 -93 46 c-153
77 -256 202 -292 355 -32 135 -11 332 47 440 30 57 144 180 189 204 102 55
145 62 379 64 172 1 190 -1 254 -24z m-1639 -440 c39 -8 106 -33 151 -54 103
-51 215 -164 269 -271 l36 -71 -4 -1167 -3 -1167 -27 -125 c-16 -68 -37 -144
-48 -169 -10 -24 -19 -50 -19 -57 0 -8 -27 -70 -60 -138 -159 -332 -436 -575
-785 -690 -152 -51 -273 -73 -467 -87 -412 -29 -819 65 -1110 257 -78 52 -210
188 -256 266 -114 192 -108 401 20 598 56 88 158 209 226 270 79 71 92 69 182
-30 199 -221 478 -321 739 -265 96 20 149 44 201 91 57 51 95 109 115 174 22
73 32 402 44 1445 10 897 7 867 81 957 113 137 254 211 480 252 38 7 157 -3
235 -19z m4184 -860 c210 -42 457 -149 631 -273 113 -81 276 -239 352 -342 90
-123 164 -262 218 -410 7 -19 28 -98 47 -175 68 -280 54 -554 -43 -844 -55
-166 -118 -294 -193 -394 -219 -293 -498 -502 -803 -602 -204 -66 -287 -78
-538 -78 -196 0 -238 3 -330 22 -232 50 -431 136 -603 258 -116 83 -296 261
-388 383 -86 114 -191 313 -221 420 -61 215 -63 230 -63 490 1 231 2 251 27
350 78 311 183 500 403 729 162 168 373 312 557 381 110 41 264 82 358 95 123
18 483 12 589 -10z m-2555 -66 c128 -39 245 -141 308 -268 28 -58 33 -79 39
-181 11 -170 10 -1903 -1 -2060 -8 -119 -13 -141 -40 -196 -17 -35 -61 -95
-100 -136 -110 -119 -219 -158 -435 -158 -270 1 -366 30 -485 149 -88 88 -136
186 -151 303 -6 54 -9 447 -7 1119 3 965 5 1038 22 1089 51 156 175 287 319
338 105 36 415 37 531 1z"/>
<path d="M7290 5445 c-142 -29 -229 -76 -319 -170 -118 -126 -165 -252 -166
-450 0 -135 20 -219 78 -330 87 -164 310 -295 502 -295 87 0 186 24 272 66
260 125 388 471 289 780 -65 203 -246 362 -453 399 -94 17 -119 17 -203 0z"/>
</g>
</svg>
