<svg data-name="Layer 1" xmlns="http://www.w3.org/2000/svg" viewBox="0 0 200 200">
  <path d="M131.36 124.22c6.71 3.84 12.27 10.46 21.91 8.61l-5.79 12.25.93 1.11c5.62-11.56 16.13-15.22 27.36-17.78 5 6.32 4.77 13.61 1.78 20.86-.7 1.71-3.45 3.2-5.49 3.62-6.95 1.41-13.15-1.27-19.45-4.18l8.19 8.89-13.21 6.32.33 1.31 23.66-4.47c1.52 6.69-1.31 14.35-6.52 17.77-3.91 2.56-7.22 2.78-11.57-.56-8.31-6.39-13.72-14-15.11-24.46a10.8 10.8 0 00-.78-2.35 13.33 13.33 0 00-1.32-1.69c1.94 10.66.73 20.82 9.7 28.39 6.1 5.14 5.54 8.69.35 14-4.85 4.92-11.58 5.34-16.4.64a8.65 8.65 0 01-2.55-5.5c-.06-21.21.22-42.41.23-63.61 0-15.56-.22-31.12-.35-46.68 0-4.63 1.19-8.55 5.92-10.47s8.77-1 12.47 2.22c4.4 3.77 3.38 10-2 12.3a47.46 47.46 0 00-9.57 5.09l10.41-1.07-6 18.78 1.15.52 15.08-26.21a15.61 15.61 0 018.76 12.79A6.4 6.4 0 01162 95c-4.12 5-8.3 9.88-15.1 11.45a14 14 0 00-5.59 3.3l7.49-.53-1.29 16.4c1.23-12 8.54-19.54 18.25-25.41 5.15 3.22 8.73 11.11 7.5 16.95a4.29 4.29 0 01-1.42 2.39c-10.9 8.24-22.35 13.47-36 6.34a36.13 36.13 0 00-4.48-1.67zM73.24 128.09c11.16 2.91 21.76 6.62 27.4 18.27l.93-1L95.68 133c9.47 1.8 14.94-5.32 22-8.78L102 130c-.68-7.23-1.28-13.58-1.91-20.29h8.73c-3.29-1.63-5.28-3-7.48-3.62-5-1.4-8.69-4.36-12-8.27-6-7-4-15.66 5.13-19.62q7.61 13.26 15.24 26.56l1.09-.49-6.4-19.51 10.48 1.17.36-.77c-3.27-1.44-6.53-2.9-9.81-4.31-5.38-2.3-6.56-8.29-2.36-12.19a11.35 11.35 0 0112.88-2.28c4.48 1.83 5.72 5.53 5.71 10 0 36.14-.09 72.27.07 108.41 0 4.35-1.3 7.26-5 9.35-4 2.26-8 2.16-11.69-.43a19.68 19.68 0 01-4.16-4.19c-2.67-3.47-3.74-7 .53-10.16 10.42-7.71 9.67-19.46 10.69-30.56-1.25 4.12-3 8.17-3.63 12.39-.84 5.63-4.18 9.15-8.31 12.35-.91.71-1.75 1.52-2.62 2.3-7.86 7-15.4 5.29-19.29-4.74-1.15-2.95-1.26-6.31-2-10.56l24.61 4.73.45-1.28-13.16-6.43 8.86-9.27c-6.65 3.1-13.06 6-20.44 4.66-1.58-.28-3.59-1-4.42-2.2-4.63-6.54-4-16.13 1.09-22.66z"/>
  <path d="M78.38 44.66h20.36c7.28.06 11.7 6.94 8.67 13.48a3.35 3.35 0 01-1.41 1.24c-.71.4-1.7.46-2.24 1-9.93 9.89-24.62 16-25.71 32.9-.28 4.31-5.23 7.93-9.61 7.94-4.14 0-8.28.06-12.42 0-5.27-.1-7.5-2.3-7.53-7.64q-.1-20.85 0-41.7c0-4.85 2.34-7.08 7.51-7.17 7.47-.13 14.92-.05 22.38-.05zM100.59 129c-9.72.85-16.38-5-23.53-9.56-.82-.53-1.18-2.26-1.23-3.45-.29-6.28 1.68-11.67 6.56-15.76 10.12 3.77 18.42 16.85 18.2 28.77zM59.51 7.58a7.37 7.37 0 013.77 1.72 6.09 6.09 0 01.43 8.54 2.29 2.29 0 00-.62 1.68v14.63h-7.93v-1-13.81a2.3 2.3 0 00-.54-1.34 6 6 0 01-1.32-6.18 5.91 5.91 0 014.79-4.1c.19 0 .37-.12.55-.17zM78.42 7.58a7.37 7.37 0 013.77 1.72 6.08 6.08 0 01.43 8.54 2.33 2.33 0 00-.62 1.68v14.63h-8v-1-13.81a2.24 2.24 0 00-.47-1.34 6.06 6.06 0 01-1.32-6.18A5.92 5.92 0 0177 7.75c.18 0 .36-.12.55-.17zM97.46 7.58a7.37 7.37 0 013.77 1.72 6.09 6.09 0 01.43 8.54 2.33 2.33 0 00-.62 1.68v14.63h-8v-1-13.81a2.3 2.3 0 00-.47-1.34 6 6 0 01-1.32-6.18A5.92 5.92 0 0196 7.75c.19 0 .37-.12.55-.17zM10.92 94.59a7.43 7.43 0 011.71-3.78 6.08 6.08 0 018.54-.47 2.28 2.28 0 001.68.61c4.55 0 9.09 0 13.64-.07h1v7.94h-1c-4.61 0-9.21 0-13.81.08a2.19 2.19 0 00-1.34.52 6 6 0 01-6.18 1.35A5.92 5.92 0 0111.1 96a5 5 0 00-.17-.55zM10.92 72.56a7.4 7.4 0 011.71-3.77 6.07 6.07 0 018.54-.47 2.32 2.32 0 001.68.61c4.55-.05 9.09-.05 13.64-.07h1v8h-1c-4.61 0-9.21 0-13.81.08a2.26 2.26 0 00-1.34.53 6.06 6.06 0 01-6.18 1.34A5.91 5.91 0 0111.1 74a5 5 0 00-.17-.55zM10.92 50a7.47 7.47 0 011.71-3.78 6.08 6.08 0 018.54-.46 2.32 2.32 0 001.68.61c4.55 0 9.09-.06 13.64-.08h1v8h-1c-4.61 0-9.21 0-13.81.08a2.26 2.26 0 00-1.34.53 6.06 6.06 0 01-6.18 1.34 5.91 5.91 0 01-4.12-4.78 5.6 5.6 0 00-.17-.54zM54.23 138.36a7.4 7.4 0 01-3.81-1.63 6.08 6.08 0 01-.63-8.53 2.33 2.33 0 00.58-1.7c-.13-4.54-.23-9.08-.33-13.63v-1l8-.19v1c.11 4.6.2 9.2.34 13.8a2.35 2.35 0 00.55 1.34 6 6 0 011.46 6.14 5.92 5.92 0 01-4.69 4.22 5.05 5.05 0 00-.55.18zM145.11 51.27a7.36 7.36 0 01-1.69 3.78 6.08 6.08 0 01-8.53.5 2.32 2.32 0 00-1.69-.61c-4.54.06-9.09.08-13.64.12h-1l-.06-7.94h1c4.6 0 9.21 0 13.81-.13a2.24 2.24 0 001.34-.52 6 6 0 016.17-1.37 5.93 5.93 0 014.14 4.76 3.5 3.5 0 00.17.55z"/>
</svg>
