<svg id="Layer_1" data-name="Layer 1" xmlns="http://www.w3.org/2000/svg" viewBox="0 0 720 405">
  <defs>
    <style>
      .cls-2,.cls-3{fill:#ccc;opacity:.8}.cls-3{fill:#959595}.cls-4{fill:#c8e4f2}
    </style>
  </defs>
  <path d="M719.26 161.49c-4.85 3.41-9.74 6.79-14.55 10.26-12.69 9.16-25.35 18.35-38.59 26.76-11.72 7.45-23.75 14.38-36.63 19.8-8.94 3.76-18.1 6.78-27.83 8a70.07 70.07 0 01-26.15-2 205.41 205.41 0 01-29.17-10.34 436.24 436.24 0 01-42.19-20.89q-23-12.86-45.68-26.26c-16.32-9.63-32.43-19.6-48.7-29.31-6.37-3.81-12.72-7.75-19.47-10.85-14.09-6.47-28.53-7.08-42.92-.62a31.06 31.06 0 00-10.25 7c-.93 1-2 1.92-2.95 2.87-1.58-1.49-1.63-2-.3-3.61a35.3 35.3 0 0112-9.47c12-6 24.5-6.71 37.36-2.9 7 2.08 13.25 5.61 19.41 9.32 14.2 8.55 28.32 17.25 42.58 25.7 17.71 10.49 35.44 20.94 53.34 31.1 10.15 5.76 20.6 11.06 31.06 16.27a278.12 278.12 0 0036.23 15.2c9.3 3.08 18.79 5.5 28.7 5.33a84.68 84.68 0 0027.85-5.67 200 200 0 0031-14.84c13.23-7.66 25.86-16.21 38.23-25.11q13.2-9.51 26.42-19a7.15 7.15 0 011.29-.58z" fill="#ccc"/>
  <path class="cls-2" d="M375.21 346.58a19.78 19.78 0 01-1.24 7.18 32.73 32.73 0 01-11.86 15.54 64.08 64.08 0 01-23.3 10.49 93.47 93.47 0 01-28.6 2 94.44 94.44 0 01-39-11.39 394.24 394.24 0 01-35.05-21.8c-17.4-11.91-34.62-24.05-52.05-35.9a377.22 377.22 0 00-42.76-25.7c-8.61-4.33-17.46-8.1-27-10.21a36.2 36.2 0 00-21.93 1.42 92.83 92.83 0 00-25.27 14.64 104 104 0 00-24.1 28.89c-7.31 12.91-12.18 26.7-15.88 40.93a8.86 8.86 0 01-1.07 2.81c.19-1 .33-2 .57-3 1.27-5.13 2.26-10.35 3.9-15.37 5.37-16.41 12.7-31.92 24-45.37a91.83 91.83 0 0140.33-28.1 32.56 32.56 0 0117.93-.85 104.43 104.43 0 0122.48 7.72 297.13 297.13 0 0140.52 23.18c13.73 9.19 27.31 18.59 40.93 27.95 15.43 10.6 30.66 21.48 46.88 30.93a155.18 155.18 0 0019 9.57 86.6 86.6 0 0023.58 5.6c12 1.32 23.92 1 35.6-2.37a62.23 62.23 0 0020-9.5c7.12-5.22 10.97-10.27 13.39-19.29zM449.27 234.45a19.56 19.56 0 01-1.52 8.09c-2.76 7.06-7.65 12.49-14 16.75A66.56 66.56 0 01403 270.63a52.26 52.26 0 01-21.35-2.08 248.92 248.92 0 01-25.75-10.08c-7.29-3.25-14.5-6.68-21.8-9.89s-14.47-6.33-21.84-9.17a86 86 0 00-12.13-3.41c-5.14-1.15-10.21 0-15.2 1.1a47.85 47.85 0 00-19.38 8.81c-1.07.85-2 1.82-3.17 2.84a3.14 3.14 0 01.74-4.08c6.26-6.34 14.19-9.58 22.8-11.43a44.43 44.43 0 0110.8-1.29 44.13 44.13 0 0110.4 2.09c9.62 2.8 18.63 7 27.71 11.1 13 5.81 25.69 12.23 39.11 17.11 5.51 2 11.07 3.91 16.93 4.62a58.9 58.9 0 0026.62-3.14 62.69 62.69 0 0019.24-10.3c6-4.9 10.72-10.66 12.15-18.42.04-.18.26-.36.39-.56zM314.23 142.22c.29 1.16.49 2.34.88 3.46a22.92 22.92 0 007 9.6c7.51 6.58 15.93 12 24.56 17q22.14 13 44.5 25.56C402 204 412.85 210.26 423 217.48a102.87 102.87 0 018.91 7.38c1.62 1.44 1.52 1.91.31 4-3.42-4.06-7.83-6.95-12.17-9.9-10.65-7.24-21.9-13.55-33.08-20-14.76-8.47-29.56-16.88-44.23-25.5a136 136 0 01-19-13.32c-4.6-3.9-8.37-8.35-9.55-14.39-.22-1.17-.34-2.36-.51-3.54z"/>
  <path class="cls-2" d="M244 254.33c.23.78.51 1.55.68 2.34 1.42 6.63 5.43 11.6 10.39 15.93 8 7 16.92 12.85 26 18.38 16.18 9.85 32.51 19.44 48.61 29.4 7.84 4.85 15.32 10.26 22.92 15.48a35.53 35.53 0 014.33 3.73c1.66 1.57 1.62 1.67 0 3.66a112.11 112.11 0 00-14.58-11.07c-15.94-10.69-32.69-20.08-49.11-30-10.73-6.5-21.51-12.95-31.49-20.57a111.64 111.64 0 01-9.39-8.13 27.45 27.45 0 01-8.44-17.5 15 15 0 00-.34-1.62z"/>
  <path class="cls-3" d="M720 157.81c-18.19 12.95-36 26.41-55 38.34-13.62 8.57-27.69 16.31-43 21.81a89.32 89.32 0 01-20.89 5 73.71 73.71 0 01-27.43-2.6A222.16 222.16 0 01541 208.12 646.75 646.75 0 01478.28 175c-21-12.42-41.91-25.13-62.88-37.67-7.53-4.5-14.94-9.23-22.75-13.22-15.18-7.77-30.81-9.09-46.58-1.47a35 35 0 00-12.72 10.16c-.28.37-.6.71-1.07 1.27a3.27 3.27 0 01.36-3.52 34 34 0 014.81-6.37c7.53-7 16.71-10.42 27-11 11.45-.68 21.88 2.45 31.54 8.23q28 16.73 55.85 33.56c20.51 12.33 41.17 24.43 62.44 35.5 12 6.26 24.17 12.24 36.74 17.35a161.27 161.27 0 0031.3 9.71 67.56 67.56 0 0026.58-.53 125.32 125.32 0 0026.32-9c16.44-7.5 31.62-17.05 46.35-27.28 12.1-8.4 24-17.07 36-25.62.79-.56 1.62-1.07 2.43-1.61zM262.24 247.19a5.86 5.86 0 011.13-5.61c2.15-3.08 5.22-5.16 8.43-7a50.8 50.8 0 0123.27-6.67c4.91-.19 9.63 1.19 14.27 2.68 9.43 3 18.32 7.28 27.28 11.37 11.65 5.31 23.13 11 35.14 15.52 6.78 2.55 13.64 4.86 20.93 5.62a52.3 52.3 0 0016.46-1.1c10.72-2.31 20.55-6.48 29-13.42a36.45 36.45 0 009.74-11.73 6.87 6.87 0 01.51-.81c0-.06.15-.07.51-.22a25.63 25.63 0 01-4.15 9.91A43.16 43.16 0 01433 257a67.11 67.11 0 01-26.71 10.34 57.37 57.37 0 01-28.72-3c-10.32-3.68-20.26-8.2-30.18-12.76-11.57-5.31-23-11-35-15.24-3.33-1.17-6.75-2.11-10.15-3.07-4.22-1.2-8.5-.84-12.74-.09a53.55 53.55 0 00-19.14 6.91 26.92 26.92 0 00-3.82 2.67c-1.49 1.29-2.75 2.79-4.3 4.43zM432.56 226.77c-7.35-7.76-16.05-13.18-24.86-18.36-15.88-9.35-31.95-18.39-47.92-27.6-10.79-6.22-21.6-12.43-31.55-19.91-3.85-2.89-7.7-5.78-10.53-9.74a13.8 13.8 0 01-3-7.79c.53.68.93 1.14 1.27 1.63 3.12 4.44 7.31 7.82 11.64 11.05 9.2 6.85 19.06 12.7 29 18.42 16.69 9.61 33.45 19.1 50.09 28.78a147.36 147.36 0 0120.05 13.67 36.44 36.44 0 013.4 3.17 8 8 0 012.41 6.68zM244.3 256.48c1.94 2.69 3.43 5.33 5.48 7.45a90.15 90.15 0 009.62 8.7A273.24 273.24 0 00287.24 291c14.54 8.65 29.15 17.18 43.63 25.9 8.25 5 16.41 10.1 23.83 16.24 1.66 1.38 3.16 3 4.72 4.44 1.28 1.23 1.29 2.59.27 4.28-1.09-.95-2.11-1.87-3.17-2.74A183.69 183.69 0 00334 323.6c-17.16-10.3-34.41-20.44-51.55-30.75a224.71 224.71 0 01-24.08-16.32 53.28 53.28 0 01-9-8.65 26.88 26.88 0 01-5.07-11.4z"/>
  <path class="cls-4" d="M442.41 229.9c-1.51 0-2.06-.36-1.79-1.93a35.24 35.24 0 00.08-5.84l1.74-.45a14.12 14.12 0 01-.03 8.22zM55 286l-1.14-1.06 5.48-5.94 1.12 1.21zM29.94 319.22l3.6-7.18 1.87 1-3.53 7.06zM288.57 220.75c-.11-.71-.19-1.25-.31-2 2.56-.26 5-.61 7.47-.73 1.47-.08.52 1.16 1.07 1.9zM256.76 341.58c-.42.61-.74 1.07-1.17 1.72l-6.79-4.44 1.19-1.7zM111 257.79l-.24 1.93c-2.53 0-5 .06-7.4-.08-.34 0-.62-1-1.11-1.85zM13 399.79c-2 .24-2.1.19-2-1.5.16-2.08.36-4.17.56-6.42l2.11.19zM16.28 372.67l-2.06-.37 1.42-7.84 2.08.4c-.48 2.63-.95 5.14-1.44 7.81zM18.69 351.08c1.73 0 2.21.51 1.74 2-.63 1.95-1 4-1.51 6.09l-2.06-.42zM321.15 130.86l1.64.33c.33 2.48.63 4.76 1 7.28l-1.39.79a11.59 11.59 0 01-1.25-8.4zM13.29 378.17l2.09.25c-.32 2.46-.58 4.77-.93 7.08-.12.83-.34.84-2.19.42zM116.55 260.87l.49-2L125 261l-.66 2zM307.58 363.62c-.13.72-.22 1.26-.36 2l-8.07-1.39.43-2zM304.8 291.27l1.11-1.76 7 4.05-1.08 1.79zM375.64 247.74c-.26.67-.47 1.18-.76 1.92l-7.56-3.08.83-1.9zM503.8 172.41l-1.1 1.77-7-3.92 1-1.79zM328.83 229.05l.87-1.88 7.44 3.29-.9 1.87zM302.36 220.2c.11-.63.21-1.2.35-2l8.06 1.81-.59 2zM142.79 270.46l1-1.83 7.27 3.64-1 1.81zM454.08 145.9l-6.91-4.18 1.08-1.78 6.92 4.19zM138.26 266.08l-.84 1.89-7.44-3 .7-1.93zM327.1 364.19c2.85-.43 5.21-.86 7.59-1.11 1.43-.14.64 1.14 1.32 1.94-2.81.37-5.27.75-7.74.92-.27.06-.7-1.02-1.17-1.75zM345.49 108.66l-.86-1.89 7.83-2.7c.22.76.38 1.33.57 2zM416.08 250.12l.77 1.89-8 2.31-.5-2zM483.4 163.26l1.1-1.75 7 4-1.05 1.8zM38.29 307.88l-1.84-1 4.33-6.81 1.77 1.13zM380.57 105.63l-7.87-1.23c.05-.61.1-1.19.17-2l8.13 1.2c-.15.78-.28 1.4-.43 2.03zM508 177.07l1-1.81 7.14 3.83-1 1.81zM324.17 224.83c-.31.71-.55 1.24-.83 1.89l-7.53-2.88c.24-.64.45-1.18.72-1.93zM572.31 206.08l.63-2 7.75 2c-.15.66-.29 1.26-.46 2zM22.32 345.84l-2-.56c.79-2.54 1.55-5 2.36-7.63l2 .63zM367.7 340.92l1.75.35a18.45 18.45 0 01-3.53 7.54l-1.49-1zM646.82 189.5l1 1.78-7.08 3.9-1.06-1.8zM358.77 104.87c-.1-.72-.17-1.26-.28-2l8.2-.72v2.06zM349.93 236.38l-.91 1.87-7.34-3.41.89-1.87zM423.31 201.23l6.63 4.71-1.26 1.64-6.55-4.58zM622.44 203.61l-7.77 2.68c-.24-.71-.43-1.25-.67-1.95l7.58-2.62zM260.61 346.49l1.15-1.72 6.88 4.17-1.09 1.77zM608.29 205.89l.5 2-8.14 1.5c-.09-.8-.15-1.37-.22-2.06zM243.83 335.54l-6.67-4.54 1.21-1.69 6.68 4.55zM363.5 329.07l1.28-1.28c2.06 2.21 3.86 4.27 4.52 7.23l-1.6.43zM405.94 116.8l-6.95-4 1-1.8 7 4.06zM658.81 182.3L660 184l-6.89 4.24-1.15-1.73zM282.27 220.05l.56 2-7.54 2.57-.87-1.87zM333.67 115.71l-1.33-1.6 6.79-4.63 1.09 1.78zM293 362.75l-7.53-2.7.81-1.87c2.41.83 4.72 1.56 6.95 2.48.31.13.22 1.19.32 1.81zM27.54 324.62l1.95.79c-1 2.45-1.9 4.82-2.89 7.36l-2-.71zM348.69 359l.86 1.85-7.55 2.71c-1.06-1.84-1-1.92.71-2.48 1.95-.65 3.91-1.36 5.98-2.08zM670.56 174.63l1.21 1.7-6.77 4.47-1.18-1.7zM381.87 176.63l-1.07 1.77-7-3.94 1-1.82zM336 309.66l-6.91-4.16 1.08-1.78 6.94 4.18zM676.69 173l-1.23-1.69 6.62-4.62 1.24 1.66z"/>
  <path d="M376.69 347.74c-1.22 7-4.87 12.24-10 16.56-8.3 7.05-18.14 11-28.8 13.19a90.51 90.51 0 01-23.39 1.64c-12.44-.67-24.5-3-35.83-8.39A200.23 200.23 0 01253 356.3c-18.43-12.47-36.77-25.08-55.15-37.64-15.95-10.89-31.92-21.76-49-31-9.89-5.34-20-10.4-31-13.23a89.2 89.2 0 00-12.39-2.17c-3.39-.37-6.74.53-9.93 1.65a91.15 91.15 0 00-28.76 16.19 104.89 104.89 0 00-23.43 28.42 146.49 146.49 0 00-9.8 20.79c-.62 1.62-1.14 3.29-1.7 4.93l-.56-.16c.51-1.69 1-3.41 1.54-5.07a156.29 156.29 0 0111.42-25.61c8.12-14.19 18.63-26.28 32.71-35.23a89.33 89.33 0 0120.48-9.56c4.16-1.36 8.48-1.18 12.76-.59a81.25 81.25 0 0120.5 6.16c13.29 5.63 25.69 12.84 37.84 20.47 18.61 11.67 36.46 24.4 54.47 36.9 13.39 9.28 26.79 18.56 40.91 26.77a130 130 0 0021.45 10.43 93 93 0 0020.9 4.82 123.18 123.18 0 0012.57.95 88.6 88.6 0 0020.15-2A70.5 70.5 0 00359 365c7.2-4.09 13.27-9.26 17-16.67.1-.11.26-.2.69-.59z" fill="#959595"/>
  <path d="M719.9 153.46c-3.21 2.24-6.45 4.42-9.61 6.71-14.47 10.45-28.84 21-43.95 30.58-12.57 8-25.49 15.3-39.43 20.81a102.63 102.63 0 01-26.11 6.86c-8.84 1-17.48-.1-26-2.32-12.85-3.33-25-8.32-37-13.83-22.53-10.35-44.16-22.36-65.42-35-23.06-13.68-46-27.62-69-41.42-6.3-3.79-12.56-7.7-19.7-9.93-14.63-4.58-28.57-3.46-41.55 5a26.25 26.25 0 00-8.47 8.53c-2.07 3.47-1.92 4.54 1.11 7.24a117 117 0 0018.85 13.2c16.38 9.57 32.87 18.94 49.31 28.42 11 6.33 21.92 12.71 32.06 20.28a77.43 77.43 0 018.05 6.83c11.78 11.65 12.11 27.77.86 39.93-7.39 8-16.77 12.93-27.17 16.14a58.89 58.89 0 01-21.73 2.86 67.11 67.11 0 01-16.68-3.81c-11.21-3.8-21.85-8.86-32.55-13.79-11.09-5.11-22-10.57-33.65-14.51a71.6 71.6 0 00-11.69-3c-5.16-.81-10.26.29-15.24 1.64a44.32 44.32 0 00-16.19 7.77 23.39 23.39 0 00-3.92 3.91c-2.5 3.19-2.4 6.23.4 9.16a53.75 53.75 0 006.08 5.38c9.73 7.47 20.32 13.7 30.88 20 15.32 9.1 30.69 18.12 45.93 27.35a139 139 0 0119.85 14.26c1.26 1.09 2.45 2.26 3.62 3.43 9.08 9.07 8.83 20.66 2.8 30.22-4.47 7.11-11.15 11.83-18.68 15.48a77.28 77.28 0 01-26.29 7.16 102.46 102.46 0 01-42.15-4.58c-9.47-3.06-18-8-26.5-13-15-9-29.23-19-43.53-28.95-18.62-12.94-37.11-26.05-56.61-37.73-11.57-6.94-23.39-13.42-36.2-18a60 60 0 00-18.24-4 24.8 24.8 0 00-8.68 1.13c-22 7.36-38.34 21.42-50.23 40.64-9.07 14.65-14.81 30.56-18.82 47.12a257.17 257.17 0 00-6.16 38c-.28 3.12-.52 6.25-.78 9.38H1.25q.59-6.22 1.15-12.45a282.53 282.53 0 014.72-31.82 204.7 204.7 0 0113.55-43c7.64-16.92 17.78-32.16 31.92-44.67a107.15 107.15 0 0141-22.82c7.78-2.3 15.69-1.89 23.57-.36 12.63 2.44 24.25 7.49 35.56 13.26 17.65 9 34.15 19.78 50.43 30.89 17.93 12.24 35.73 24.66 53.69 36.87a245.25 245.25 0 0029 17.15c8.85 4.38 18.3 6.45 28.12 7.21a68.29 68.29 0 0027.46-3.12 35.42 35.42 0 0011.52-6 25.57 25.57 0 004.58-5c1.49-2.15 1.32-3.67-.69-5.35-4.26-3.58-8.43-7.35-13.13-10.31-13.33-8.4-26.86-16.51-40.4-24.59-12.93-7.72-26.07-15.11-38.43-23.7-5.53-3.85-11-7.81-15.36-12.94-8.41-9.84-8.9-22.72-1.29-33.17 4.74-6.51 11.19-11 18.42-14.57a73.55 73.55 0 0130.19-7.52c7-.23 13.73 1.52 20.31 3.71 11.9 4 23.16 9.37 34.5 14.6 10.77 5 21.41 10.25 32.71 14a56.06 56.06 0 0011.83 2.92c7.36.76 14.28-1.36 20.92-4.31a35.84 35.84 0 0010.18-6.57c5.91-5.57 6-10.35-.38-15.37a166.33 166.33 0 00-17.64-12.44c-16-9.53-32.16-18.69-48.28-28-11.56-6.66-23.16-13.26-33.87-21.21a86 86 0 01-8.07-6.81c-7.59-7.26-9.09-15.88-5.41-25.43 2.71-7 7.56-12.58 13.5-17.24A63.8 63.8 0 01362 93.58c16.33-1.33 31.26 2.94 45.07 11.19 19.48 11.63 38.87 23.42 58.33 35.09 23.68 14.2 47.53 28.11 72.42 40.25 12.77 6.23 25.73 12.06 39.5 16 6.35 1.8 12.78 3.17 19.47 2.62a76.58 76.58 0 0020.9-5.11 192.55 192.55 0 0039.32-20.88c15.42-10.42 30.49-21.32 45.74-32 5.2-3.63 10.48-7.16 15.73-10.72.43-.29.92-.5 1.38-.75zM442.41 229.9a14.12 14.12 0 000-8.22l-1.74.45a35.24 35.24 0 01-.08 5.84c-.24 1.57.31 1.91 1.82 1.93zM55 286l5.5-5.8-1.16-1.2-5.52 5.95zm-25 33.23l1.94.84 3.47-7.07-1.87-1zm258.63-98.47l8.23-.87c-.55-.74.4-2-1.07-1.9-2.46.12-4.91.47-7.47.73.06.78.14 1.28.25 2.03zm-31.87 120.82l-6.76-4.42-1.19 1.7 6.79 4.44c.4-.65.74-1.11 1.16-1.72zM111 257.79h-8.75c.49.86.77 1.84 1.11 1.85 2.43.14 4.87.08 7.4.08zm-98 142l.7-7.73-2.11-.19c-.2 2.25-.4 4.34-.56 6.42-.14 1.71-.03 1.71 1.97 1.5zm3.29-27.12c.49-2.64 1-5.18 1.44-7.81l-2.08-.4-1.42 7.84zm163-81.27l6.78 4.4 1.17-1.72-6.77-4.4c-.47.6-.79 1.09-1.23 1.72zm-160.6 59.68l-1.83 7.65 2.06.42c.51-2.12.88-4.14 1.51-6.09.47-1.47-.01-1.98-1.74-1.98zm302.46-220.22a11.59 11.59 0 001.22 8.4l1.39-.79c-.34-2.52-.64-4.8-1-7.28zM13.29 378.17l-1 7.75c1.85.42 2.07.41 2.19-.42.35-2.31.61-4.62.93-7.08zm103.26-117.3l7.78 2.08.66-2-7.99-2.08zm191 102.75l-8-1.39-.43 2 8.07 1.39c.17-.74.26-1.28.39-2zm-2.78-72.35l7 4.08 1.08-1.79-7-4.05zm70.84-43.53l-7.49-3.06-.83 1.9 7.56 3.08c.32-.74.53-1.25.79-1.92zm128.19-75.33l-7.11-3.94-1 1.79 7 3.92zm-175 56.64l7.41 3.28.9-1.87-7.44-3.29zm-26.47-8.85l7.82 1.76.59-2-8.06-1.81c-.11.85-.21 1.42-.32 2.05zm-159.54 50.26l7.2 3.62 1-1.81-7.27-3.64zM454.08 145.9l1.09-1.77-6.92-4.19-1.08 1.78zM138.26 266.08l-7.58-3.08-.7 1.93 7.44 3zm188.84 98.11c.47.73.86 1.78 1.17 1.75 2.47-.17 4.93-.55 7.74-.92-.68-.8.11-2.08-1.32-1.94-2.38.25-4.69.68-7.59 1.11zm18.39-255.53l7.54-2.61c-.19-.65-.35-1.22-.57-2l-7.83 2.7zm70.59 141.46l-7.69 2.18.5 2 8-2.31zm67.32-86.86l7 4.05 1.05-1.8-7-4zM38.29 307.88l4.26-6.69-1.77-1.13-4.33 6.81zm172.16 2l-6.66-4.61c-.45.61-.8 1.1-1.23 1.7l6.66 4.58zm170.12-204.25c.15-.65.28-1.25.45-2l-8.15-1.24c-.07.85-.12 1.43-.17 2zM508 177.07l7.16 3.83 1-1.81-7.16-3.83zm-183.83 47.76l-7.64-2.92c-.27.75-.48 1.29-.72 1.93l7.53 2.88c.28-.65.52-1.18.83-1.89zm248.14-18.75l7.92 2.08c.17-.76.31-1.36.46-2l-7.75-2zm-550 139.76l2.33-7.56-2-.63c-.81 2.62-1.57 5.09-2.36 7.63zm345.38-4.92l-3.27 6.85 1.49 1a18.45 18.45 0 003.53-7.54zM646.82 189.5l-7.09 3.88 1.06 1.8 7.08-3.9zm-288.05-84.63l7.92-.7v-2.06l-8.2.72c.11.78.18 1.32.28 2.04zm-8.84 131.51l-7.36-3.38-.89 1.87 7.34 3.41zm73.38-35.15l-1.18 1.77 6.55 4.63 1.26-1.64zm199.13 2.38l-.86-1.89-7.58 2.62c.24.7.43 1.24.67 1.95zM260.61 346.49l6.94 4.22 1.09-1.77-6.88-4.17zm347.68-140.6l-7.86 1.43c.07.69.13 1.26.22 2.06l8.14-1.5zM243.83 335.54l1.22-1.69-6.68-4.55-1.21 1.7zm119.67-6.47l4.2 6.38 1.6-.43c-.66-3-2.46-5-4.52-7.23zm42.44-212.27L407 115l-7-4-1 1.8zm252.87 65.5l-6.88 4.23 1.15 1.73L660 184zm-376.54 37.75l-7.85 2.68.87 1.87 7.54-2.57zm51.4-104.34l6.55-4.45-1.09-1.78-6.79 4.63zM293 362.75l.55-.28c-.1-.62 0-1.68-.32-1.81-2.23-.92-4.54-1.65-6.95-2.48l-.81 1.87zM27.54 324.62l-2.94 7.44 2 .71c1-2.54 1.92-4.91 2.89-7.36zM348.69 359c-2.07.72-4 1.43-6 2.08-1.72.56-1.77.64-.71 2.48l7.59-2.71zm321.87-184.37l-6.73 4.47 1.18 1.7 6.76-4.47zm-288.69 2l-7.06-4-1 1.82 7 3.94zM336 309.66l1.11-1.76-6.94-4.18-1.08 1.78zM676.69 173l6.63-4.65-1.24-1.66-6.62 4.62zM191 299.1l6.67 4.52 1.2-1.72-6.68-4.51zm177.56-127.61l1-1.8-7-4-1.08 1.78zm324.92-13l-6.56 4.72 1.3 1.64 6.53-4.7zm-336 4.18l-7-4.13-1.08 1.76 6.94 4.15zm113.8-6.51l7 4.09 1.1-1.77-7-4.09zM46 296.46c1.7-2.08 3.34-4.07 5-6.15L49.37 289l-5.11 6.27zm253.71-8.19l1.08-1.79-6.93-4.1-1.13 1.75zM96.5 258.53l-7.8 2.74.81 1.9 7.49-2.64zm249-103.11l-6.76-4.4-1.19 1.7 6.8 4.42zm359.38-5.15l-6.59 4.73 1.29 1.65 6.52-4.75zm11.47-8.12l-6.65 4.66 1.28 1.65 6.6-4.63zm-149.1 60.12l-7.55-2.76-.79 1.92 7.7 2.8zm-311.42 52c-.59-2.08-1.22-3.89-1.62-5.76-.35-1.62-.34-1.71-2.2-1.2a15.58 15.58 0 002.24 7.78zM84.08 265.48l-1-1.85-7.28 3.76 1.09 1.75zm-18.75 11.33l6.54-4.62-1.19-1.7L64 275.2zm377.84-139.95l-6.92-4.22-1.1 1.78 6.85 4.18zM280.66 276.79l6.91 4.25 1.11-1.74-6.85-4.24zM459.17 149l6.95 4.15c.4-.63.72-1.13 1.11-1.76l-7-4.15zM175.39 286.47l-6.92-4.26-1.11 1.79 6.86 4.24zm218.36-176.4l.88-1.89-7.71-3c-.24.78-.42 1.34-.62 2zm25.4 12.19l-6.95-4.16-1.08 1.78L418 124zm-37.93 127.59l-.71 1.94 7.92 2.36c0-1 1.13-1.82-.38-2.28zm5.85-70.29l-1.07 1.79 7 4 1.07-1.78zm-69 117l-1.1 1.77 7 4.08c.38-.62.71-1.15 1.1-1.76zm210.55-111.04l-7.22-3.66-1 1.82 7.21 3.67zm-174.18 55.26l7.4 3.36.85-1.88-7.34-3.34zm7.39 112.64l-1.44-1.55-6.45 4.56c.37.57.68 1.07 1.11 1.75zM280 357.5c.34-.73.61-1.29.89-1.88l-7.08-3.7-1.06 1.78zm69-42l-6.82-4.41-1.18 1.71 6.75 4.37zm81-184.17l1.09-1.8-6.91-4.16-1.07 1.76zM418.32 198l-6.9-4.29-1.13 1.76 6.86 4.24zm-64.38 120.86l-1.26 1.66 6.38 4.84 1.36-1.57zM225.6 323l6.64 4.6 1.24-1.67-6.64-4.62zm37.66-91.65l6.68-4.28-1-1.79-7 4.44zM545.82 196l7.49 3.2.84-1.89-7.45-3.17c-.33.66-.56 1.16-.88 1.86zm48.65 11.82c-2.23-.14-4.29-.24-6.34-.42-1.8-.17-1.9-.1-1.6 2l7.94.48zm33.5-6.46c2.1-1 4-1.83 5.91-2.72 1.74-.82 1.76-1 .34-2.44l-7.08 3.27c.27.59.5 1.14.86 1.87zM220.72 319.58l1.21-1.7-6.6-4.59-1.22 1.71zM533 190l7.38 3.5.87-1.89-7.25-3.42zm-126.69.63l-7-4.1c-.41.66-.72 1.16-1.09 1.78l7 4.08zm-149 43.14l-4.51 7.11 2 .7 4.15-6.43zm165.18 15.95l7.2-4-1.21-1.7-6.93 3.91zm-146.88 23.83l1.2-1.7-6.67-4.53-1.21 1.68zm-11.56-8.1l1.35-1.61-6-5.2-1.56 1.36zm57.39 98.93h-8v1.92h8zm6.31-221.81l-1.47 1.51 6.33 5.19 1.26-1.64zM155.23 276.92l7 4 1-1.78-7-4zm283-42.29l-5.09 5.88 1.44 1.51c1.86-2.14 3.61-4.17 5.45-6.31zm-113.35-108.7l4.53-6.31-1.61-1.36L323 125zm108.41 85.27l5.2 5.72 1.83-1.09-5.6-6.15zm-30.68 42.12h-6.46c-1.68 0-1.83.14-1.44 1.93h8.05c-.06-.77-.1-1.32-.15-1.93z" fill="#364759"/>
  <path class="cls-4" d="M179.24 291.4c.44-.63.77-1.12 1.18-1.72l6.77 4.4-1.19 1.72zM210.45 309.89l-1.23 1.67-6.66-4.56c.43-.6.78-1.09 1.23-1.7zM191 299.1l1.19-1.71 6.68 4.51-1.2 1.72zM368.56 171.49l-7-4 1.08-1.78 7 4zM693.48 158.5l1.27 1.66-6.53 4.7-1.3-1.64zM357.46 162.68l-1.1 1.78-6.94-4.15 1.08-1.76zM471.26 156.17l1.1-1.77 7 4.09-1.1 1.77zM46 296.46l-1.69-1.22 5.06-6.24 1.63 1.31c-1.71 2.08-3.35 4.07-5 6.15zM299.66 288.27l-7-4.14 1.13-1.75 6.93 4.1zM96.5 258.53l.54 2-7.53 2.64-.81-1.9zM345.47 155.42l-1.15 1.72-6.8-4.42 1.19-1.7zM704.85 150.27l1.25 1.65-6.52 4.75-1.29-1.67zM716.32 142.15l1.23 1.68-6.6 4.63-1.28-1.65zM567.22 202.27l-.64 2-7.7-2.8.79-1.92zM255.8 254.28l-1.58.82a15.58 15.58 0 01-2.24-7.78c1.86-.51 1.85-.42 2.2 1.2.4 1.87 1.03 3.68 1.62 5.76zM84.08 265.48l-7.15 3.66-1.09-1.75 7.28-3.76zM65.33 276.81L64 275.2l6.65-4.71 1.19 1.7zM443.17 136.86L442 138.6l-6.89-4.18 1.1-1.78zM280.66 276.79l1.17-1.73 6.85 4.24-1.11 1.7zM459.17 149l1.11-1.76 7 4.15c-.39.63-.71 1.13-1.11 1.76zM175.39 286.47l-1.17 1.72-6.86-4.19 1.11-1.74zM393.75 110.07l-7.45-2.89c.2-.62.38-1.18.62-2l7.71 3zM419.15 122.26L418 124l-6.9-4.12 1.08-1.78zM381.22 249.85l6.83 2c1.51.46.42 1.3.38 2.28l-7.92-2.36zM387.07 179.56l7 4-1.07 1.78-7-4zM318.07 296.58l7 4.09c-.39.61-.72 1.14-1.1 1.76l-7-4.08zM528.62 185.52l-1 1.83-7.21-3.67 1-1.82zM354.44 240.78l.91-1.86 7.34 3.34-.85 1.88zM361.83 353.42l-6.78 4.76c-.43-.68-.74-1.18-1.11-1.75l6.45-4.56zM280 357.5l-7.25-3.8 1.06-1.78 7.08 3.7c-.27.59-.54 1.15-.89 1.88zM349 315.48l-1.21 1.69-6.79-4.37 1.14-1.73zM430 131.31l-6.89-4.2 1.07-1.76 6.91 4.16zM418.32 198l-1.17 1.71-6.86-4.24 1.13-1.76zM353.94 318.86l6.48 4.93-1.36 1.57-6.38-4.84zM225.6 323l1.24-1.69 6.64 4.62-1.24 1.67zM263.26 231.34l-1.32-1.63 7-4.44 1 1.79zM545.82 196c.32-.68.55-1.18.88-1.86l7.45 3.17-.84 1.89zM594.47 207.8v2l-7.94-.48c-.3-2.08-.2-2.15 1.6-2 2.05.24 4.11.34 6.34.48zM628 201.34c-.33-.73-.56-1.28-.83-1.89l7.08-3.27c1.42 1.43 1.4 1.62-.34 2.44-1.91.89-3.84 1.75-5.91 2.72zM220.72 319.58l-6.61-4.58 1.22-1.68 6.6 4.59zM533 190l1-1.81 7.26 3.42-.87 1.89zM406.3 190.63l-1.11 1.76-7-4.08c.37-.62.68-1.12 1.09-1.78zM257.31 233.77l1.63 1.38-4.15 6.43-2-.7zM422.49 249.72l-.94-1.82 6.93-3.91 1.21 1.7zM275.61 273.55l-6.68-4.55 1.21-1.69 6.67 4.53zM264.05 265.45l-6.21-5.45 1.58-1.38 6 5.2zM321.44 364.38v1.92h-8v-1.92zM327.75 142.57l6.12 5.06-1.26 1.64-6.33-5.19zM155.23 276.92l1.06-1.79 7 4-1 1.78zM438.23 234.63l1.8 1.08c-1.84 2.14-3.59 4.17-5.45 6.31l-1.44-1.51zM324.88 125.93L323 125l4.81-6.74 1.61 1.36zM433.29 211.2l1.43-1.52 5.6 6.15-1.83 1.09zM402.61 253.32c.05.61.09 1.16.15 1.92h-8.05c-.39-1.79-.24-2 1.44-1.93 2.1.03 4.2.01 6.46.01z"/>
</svg>
