<svg id="Layer_1" data-name="Layer 1" xmlns="http://www.w3.org/2000/svg" viewBox="0 0 512 512">
  <defs>
    <style>
      .cls-2{fill:#081051}
    </style>
  </defs>
  <path d="M192.7 97.8c57 .15 104.93 21.46 143.05 63.64 36.18 40.05 51.65 87.84 48.2 141.46-3.32 51.74-25 95.15-63.44 129.7-40.31 36.2-88.26 51.68-142 48.07-51.53-3.46-94.8-25.13-129.19-63.5-36.15-40.33-51.24-88.25-48.1-142C6.52 183.57 85.48 96.53 192.7 97.8zm.32 26c-91.15.07-166 74.82-166.06 166S102 456.08 193.2 456s165.94-74.87 166.07-166c.14-91.2-74.96-166.32-166.27-166.25z" fill="#bababa"/>
  <path class="cls-2" d="M348.17 287.9c0 5.06.06 10.13 0 15.19a23.32 23.32 0 01-.79 3.87c-.28 1.49-.48 3-.76 4.48-.32 1.66-.68 3.32-1 5a6.46 6.46 0 00-.36 1.37c.08 3.21-1.16 6.15-2 9.13-1 3.51-2.82 6.78-3.82 10.28-1.27 4.47-4.08 8.2-5.59 12.55-.77 2.2-2.42 4.12-3.7 6.09-.88 1.36-1.76 2.73-2.71 4-5.69 7.87-11.52 15.68-19.31 21.58-3.11 2.36-6.22 4.65-10.09 5.72-2.16.59-4.19 1.66-6.3 2.44a6.42 6.42 0 01-2 .3 27.23 27.23 0 00-2.86 0c-3.23.47-6.21-.5-9.07-1.7a31.16 31.16 0 01-12.18-8.53 92.49 92.49 0 01-6.63-9.07 61.26 61.26 0 01-4.94-9.6c-1.78-4.19-4-8.19-5.82-12.37-.9-2.05-1.27-4.32-2-6.46-.77-2.3-1.66-4.55-2.5-6.82a5.82 5.82 0 01-.34-.77c-.65-2.75-1.2-5.54-1.94-8.27s-1.81-5.54-2.53-8.36c-.79-3.11-1.34-6.28-2-9.42-.23-1.11-.49-2.21-.76-3.31a27.56 27.56 0 01-.76-3c-.19-1.61-.13-3.25-1.38-4.54a1.46 1.46 0 01-.28-1.07c.37-4-1.48-7.61-1.8-11.49a31.39 31.39 0 00-1.53-8.63c-1.11-2.87-.76-5.89-1.59-8.63-1.26-4.11-1-8.32-1.75-12.4-.68-3.58-.47-7.3-1.33-10.73-1.2-4.8-.74-9.7-1.69-14.4-1.05-5.21-1.1-10.41-1.43-15.64-.54-8.48-.78-17-1.88-25.4-.86-6.56-.3-13.2-1.32-19.65-1.37-8.65-1-17.32-1.46-26a39.37 39.37 0 01.06-5.43c.23-2.58 2.29-3.71 4.82-2.74a14.23 14.23 0 002.33.7c3.05.63 6.14 1.09 9.15 1.89 2.24.6 4.34 1.71 6.53 2.5 1.68.6 3.43 1 5.12 1.58 1.88.61 3.77 1.2 5.59 1.95s3.61 1.84 5.49 2.56a57.43 57.43 0 017.17 3.64c3.26 1.82 6.74 3.28 9.86 5.3 5.12 3.31 10.19 6.76 15 10.51a145.94 145.94 0 0112.09 10.71c4.09 4 8 8.16 11.79 12.45 2.44 2.77 4.57 5.83 6.74 8.83a136.75 136.75 0 019.98 15.91c2.23 4.22 4.2 8.52 6.21 12.83a92.35 92.35 0 014.6 12.36c.7 2.32 1.94 4.48 2.57 6.81.85 3.19 1.36 6.47 2 9.72a8.37 8.37 0 00.32 2.25c1.48 2.65 1.14 5.56 1.4 8.38a2.12 2.12 0 00.1.85c1.89 3.68 1.19 7.67 1.34 11.54.12 3 0 6.11 0 9.17zm-73.93-78.5h-.81c-1.16 4.81-2.81 9.42-6.38 12.93a31.89 31.89 0 01-12.38 7.26c1.28 2.85 4.27 2.79 6.38 3.94a22.56 22.56 0 016.83 5.61 35.54 35.54 0 013.54 6c.78 1.48 1.27 3.12 2.1 4.57.35.62 1.24.94 2.15 1.59 1.94-10.48 7.75-17 17.73-19.9-.09-.73-.17-1.44-.25-2.09-3.69-.55-6.18-3-8.84-4.9-3.09-2.25-4.7-5.79-6.61-9-1.2-1.94-2.31-3.99-3.46-6.01zm10.53 120.77a20.41 20.41 0 002 1.61 12.5 12.5 0 014.64 5.37c.86 1.83 1.7 2 3.21 1.36.9-4.61 5.44-5.72 8.32-8.51-4.08-2.09-7.16-3.9-8.47-6.88-1.83-.92-3 .18-3.73 1.51-1.29 2.37-3.31 3.86-5.97 5.54zM167 135.12c2.2 2.43 2.25 4.89 1.73 7.85-.74 4.21-.71 8.55-1 12.83-.09 1.43 0 2.87-.1 4.3-.59 9-.78 18.11-2 27.05-1 7.33-.68 14.68-1.44 22-.54 5.21-.74 10.46-1.19 15.68a43.37 43.37 0 01-.92 4.73c-.11.56-.27 1.12-.33 1.68-.56 5.39-1.05 10.78-1.67 16.17-.32 2.83-.93 5.63-1.27 8.46-.28 2.37-.33 4.76-.51 7.14a8.71 8.71 0 01-.39 2.82c-.91 2.07-.83 4.26-1.15 6.41-.57 3.81-1.58 7.55-2.39 11.32a18.15 18.15 0 00-.53 2.78c-.12 2.38 0 4.79-1.4 6.91a3.25 3.25 0 00-.24 1.39 10.67 10.67 0 010 1.14c-.81 3.48-1.65 7-2.48 10.42-.14.56-.35 1.09-.46 1.65-.63 3.15-.79 6.49-2 9.4-1.09 2.67-1.23 5.51-2.37 8.14-.92 2.14-1.21 4.55-1.89 6.8-.92 3-1.92 6-2.91 9-.52 1.61-1 3.23-1.65 4.8q-2.4 6-4.93 11.86c-1.65 3.83-3.15 7.75-5.14 11.4-1.44 2.65-3.76 4.81-5.34 7.4a35.16 35.16 0 01-5.12 5.94 22.22 22.22 0 01-7 4.58c-1.94.89-3.89 1.77-5.87 2.56a6.94 6.94 0 01-2.22.37c-1.91.06-3.83 0-5.74 0-3 0-5.63-1.17-8.25-2.46-1.42-.71-2.94-1.23-4.35-2a42.75 42.75 0 01-10.62-7.85c-2.11-2.11-4.21-4.25-6.38-6.3-4.18-4-7.18-8.87-10.42-13.55-2.1-3-3.54-6.52-5.24-9.82-1.48-2.87-3-5.73-4.33-8.67-.77-1.71-1.15-3.6-1.8-5.37-.88-2.44-2-4.8-2.76-7.28-.85-2.9-1.36-5.9-2-8.85-.29-1.28-.62-2.56-1-3.83a11.79 11.79 0 01-.44-1.35C39 308.93 38.36 305 38.1 301a246 246 0 010-28.35A33.55 33.55 0 0139 268a3.63 3.63 0 00.15-.84c-.38-4.28 1.35-8.22 2-12.32a90.81 90.81 0 012.52-9.52c.66-2.36 1.29-4.73 2.09-7 .71-2.05 1.62-4 2.46-6 .58-1.36 1.23-2.69 1.79-4.06 1.23-3 2.07-6.27 3.7-9 2.39-4.06 4.53-8.26 7.09-12.25 2-3.1 3.9-6.29 6.09-9.25a149.22 149.22 0 0113.75-16.52 183.08 183.08 0 0116.67-15 136.09 136.09 0 0115.24-10.67c4.41-2.61 8.77-5.33 13.36-7.57 4.19-2 8.72-3.39 13-5.26a66.16 66.16 0 019.85-3.1c2.63-.7 5.19-1.66 7.79-2.46.72-.22 1.5-.23 2.25-.39 1.85-.4 3.69-.87 5.55-1.24.93-.3 1.87-.34 2.65-.43zM96.69 274.05a34.48 34.48 0 00-2.06 5c-.54 2.24-2.25 3.65-3.3 5.5a9.11 9.11 0 01-4 4.22c-1.77.77-2.64 2.62-4.72 3.19-1.67.46-3.23 1.37-5.06 1.55-.49 0-1 1-1.26 1.58-.08.19.6.86 1.05 1.06 1.54.68 3.18 1.15 4.69 1.89 3.33 1.62 6.61 3.55 8.83 6.49 2.37 3.12 5.21 6.12 5.56 11 1.14-1.12 2.25-1.69 2.48-2.52.93-3.2 2.86-5.8 4.84-8.31a25.06 25.06 0 018.5-6.52c2.19-1.11 4.69-1.64 7.57-2.61-1.26-.81-2.19-1.85-3.22-2-3-.35-5.32-2.07-7.67-3.65a22.3 22.3 0 01-10-14.31c-.34-1.61-1.1-1.83-2.23-1.56zm34.69-72.6c-4.69-2.46-7.08-4.16-8.66-7-.75-1.34-1.44-1.78-2.79-1.45-1.31 4.38-5.09 6.28-8.87 8.75 1.82 1.36 3.45 2.52 5 3.77s3.23 2.59 3.48 4.8c.19 1.65 1.09 1.78 2.46 1.41 1.66-4.6 5.58-7.2 9.38-10.28z"/>
  <path d="M243.72 423.61a3.19 3.19 0 01.65 1.22c.49 1.64.94 3.29 1.4 4.94.33 1.16.43 2.15-.74 3.05a10.56 10.56 0 00-1.77 2.33c-2.43.64-4.51 1.25-6.63 1.73-2.94.66-5.91 1.19-8.87 1.81-4.36.91-8.69 2.06-13.1 2.73a89.66 89.66 0 01-12.25 1c-7.45.1-14.9 0-22.34-.27a44.7 44.7 0 01-10.14-1.4c-3.55-1-7.32-1.17-11-1.79a21.38 21.38 0 01-3.2-1c-.63-.21-1.22-.57-1.85-.72a27.73 27.73 0 00-5.82-1.14c-2.84 0-4.58-1.83-6.61-3.27a2.14 2.14 0 01-.87-2.71c1.25-4.1 3.24-7.87 5-11.75 2-4.48 4.74-8.67 5.62-13.65.32-1.83 1.52-3.49 2-5.3.91-3.14 2.5-6 2.73-9.45.15-2.08 1.39-4.08 2.13-6.12a11.84 11.84 0 00.59-1.6c1-4.34 2.09-8.67 2.87-13a73.47 73.47 0 013.12-12.71c.6-1.63.23-3.6.47-5.4.28-2.16.74-4.29 1.13-6.44 0-.18.16-.35.19-.54.67-3.73 1.11-7.53 2-11.19 1.19-4.58.78-9.33 1.78-13.86a56.07 56.07 0 001.16-10.77 3 3 0 01.15-1.13c1.56-3.42 1.41-7.07 1.47-10.7a2.47 2.47 0 01.1-1.13c2-3.85 1.15-8.05 1.55-12.1.24-2.45.7-4.89.9-7.34.22-2.85.28-5.72.37-8.58.1-3.24-.05-6.49 1.28-9.58a6.24 6.24 0 00.26-2.26c.08-2.58.15-5.16.15-7.74a73.26 73.26 0 011.46-13.29 6.2 6.2 0 00.11-1.14c.1-4.18.38-8.33.78-12.5.69-7.21.59-14.49.92-21.74a46 46 0 01.85-5.3 22.6 22.6 0 00.37-2.83c.09-2.58.06-5.16.14-7.73.22-7 .32-13.95.77-20.9a12.9 12.9 0 016.8-11.09c3.36-1.87 9.16-.06 10.86 3.52a32.59 32.59 0 012.23 7.86c.81 4.17.27 8.42 1 12.51 1.93 10.71.52 21.58 1.81 32.26 1 8.57.58 17.16 1.32 25.72a2.37 2.37 0 00.07.85c2 4.18.83 8.64 1.11 13 .19 2.77.18 5.52 1.27 8.15a8.22 8.22 0 01.37 2.82c.14 5 .14 9.93.4 14.89.17 3 .74 6 1.12 9 .8 6.22 1.61 12.43 2.38 18.65.33 2.64.57 5.29.87 7.93.07.66.25 1.3.35 2 .41 2.62.84 5.24 1.2 7.88.51 3.67.91 7.37 1.44 11 .56 3.85.7 7.87 2 11.48s1.06 7.1 1.4 10.66a17.9 17.9 0 00.52 2.5c.32 1.38.68 2.74 1 4.12.76 3.42 1.5 6.85 2.27 10.27.08.36.47.7.45 1-.17 3.58 1.47 6.79 2 10.23a18.64 18.64 0 00.81 3c.2.63.55 1.22.71 1.86 1.09 4.13 2 8.3 3.25 12.38.66 2.2 1.87 4.22 2.68 6.38.7 1.85 1.19 3.77 1.79 5.66.14.45.22 1.12.53 1.28" fill="#f55930"/>
  <path class="cls-2" d="M194.61 1.79a5.27 5.27 0 01.71 1.27 33.64 33.64 0 002.87 8.4 10.22 10.22 0 01.3 1.89c.26 1.05.59 2.08.89 3.13a19.15 19.15 0 01.64 2.33c.17 1.07 0 2.19 1 3a1.71 1.71 0 01.52 1.23 17.93 17.93 0 001.17 5c.54 1.91 1 3.85 1.48 5.77.63 2.52.9 5.13 1.74 7.66.53 1.59.27 3.44 1.34 4.94a1.73 1.73 0 01.23.78c.53 4.07 1 8.15 1.61 12.21.2 1.42.76 2.79 1 4.2a35.5 35.5 0 01.48 4.35c.11 2 0 4 1 5.88.51 1 .38 2.32.49 3.51q.57 5.73 1.1 11.47c.18 1.92.35 3.84.47 5.76a19.84 19.84 0 001 5.62c.63 1.75.35 3.81.55 5.72a27.24 27.24 0 00.72 4.87c1.33 4.44.74 8.93.44 13.4a11.85 11.85 0 01-1.43 4.68 4 4 0 01-3.85 2.13c-3.87-.21-7.73-.53-11.6-.56-4.78 0-9.57.11-14.35.25-3.51.1-7 .41-10.5.42-2.6 0-3.2-.76-3.22-3.38v-9.9a6.06 6.06 0 01.21-1.91c1.12-3.08 1-6.31 1.3-9.5.19-2.26.68-4.5 1-6.75.09-.54.28-1.07.32-1.61.56-6.38 1-12.76 1.67-19.13.22-2.16.83-4.29 1.12-6.45.23-1.72.17-3.48.39-5.2a36.26 36.26 0 01.92-3.94 6.61 6.61 0 00.47-1.82c-.34-4.84 2-9.32 1.91-14.11 1.61-2.52.45-5.85 2.46-8.28.34-.42.15-1.25.29-1.87.3-1.33.65-2.64 1-4 .09-.35.38-.69.35-1-.24-2.92 1.27-5.47 1.82-8.22a62.8 62.8 0 012.42-7.41c.08-.26.29-.52.27-.76-.27-2.76 1.45-5.05 1.86-7.66a25.82 25.82 0 011.85-5.34c.29-.36.96-.59 1.57-1.07zm-.37 96.36c6.54.61 10.21-5.15 10.42-10s-5.3-9.91-10.32-10A10.24 10.24 0 00183.77 88c.15 5.3 3.02 10.51 10.47 10.15z"/>
</svg>
