<svg id="Layer_1" data-name="Layer 1" xmlns="http://www.w3.org/2000/svg" viewBox="0 0 1440 320.16"><defs><style>.cls-1{fill:#f8f9fa;}</style></defs><path class="cls-1" d="M0,64.16a25.88,25.88,0,0,1,2.31,2c16.9,18.35,33.68,36.8,50.7,55q15.89,17,32.33,33.47a732.55,732.55,0,0,0,67.8,60.49c18.27,14.22,37.28,27.31,57.83,38.06a260.17,260.17,0,0,0,66.77,24.07,291,291,0,0,0,49.92,6A369,369,0,0,0,371,282.2c26.73-2.16,53.14-6.48,79.38-11.86,30.47-6.24,60.53-14.14,90.31-23,32.62-9.72,65.13-19.76,97.68-29.72,28.8-8.81,57.6-17.64,86.67-25.52,23.84-6.46,47.81-12.37,72.1-16.84q20-3.69,40.23-6.44c15-2,30.15-3.64,45.24-5.34,13.42-1.51,26.87-2.82,40.29-4.34,18.9-2.14,37.74-4.72,56.46-8.16a423.51,423.51,0,0,0,84.05-24.55c20.13-8.24,39.88-17.3,59.48-26.7,26.31-12.61,52.54-25.37,78.95-37.75,36.3-17,74.16-29.63,113.1-39.06q31.71-7.66,63.88-13c19.16-3.14,38.35-6.13,57.52-9.21a30.15,30.15,0,0,0,3.16-.85c.16.08.45.15.45.24,0,.64,0,1.28,0,1.92V320H0Z" transform="translate(0 0.16)"/></svg>